<?xml version="1.0" encoding="UTF-8"?>
<svg xmlns="http://www.w3.org/2000/svg" xmlns:xlink="http://www.w3.org/1999/xlink" width="24px" height="24px" viewBox="0 0 24 24" version="1.1">
<g id="surface1">
<path style=" stroke:none;fill-rule:nonzero;fill:rgb(0%,0%,0%);fill-opacity:1;" d="M 12 0 C 5.371094 0 0 5.371094 0 12 C 0 18.628906 5.371094 24 12 24 C 18.628906 24 24 18.628906 24 12 C 24 5.371094 18.628906 0 12 0 Z M 8.644531 17.019531 L 6.304688 17.019531 L 6.304688 9.535156 L 8.644531 9.535156 Z M 7.410156 8.597656 L 7.390625 8.597656 C 6.542969 8.597656 5.996094 8.023438 5.996094 7.296875 C 5.996094 6.558594 6.5625 6 7.425781 6 C 8.289062 6 8.816406 6.558594 8.835938 7.296875 C 8.839844 8.019531 8.292969 8.597656 7.410156 8.597656 Z M 18 17.019531 L 15.347656 17.019531 L 15.347656 13.148438 C 15.347656 12.136719 14.933594 11.441406 14.019531 11.441406 C 13.320312 11.441406 12.933594 11.910156 12.753906 12.359375 C 12.6875 12.519531 12.699219 12.746094 12.699219 12.976562 L 12.699219 17.019531 L 10.070312 17.019531 C 10.070312 17.019531 10.101562 10.15625 10.070312 9.535156 L 12.699219 9.535156 L 12.699219 10.710938 C 12.851562 10.195312 13.691406 9.464844 15.03125 9.464844 C 16.695312 9.464844 18 10.542969 18 12.859375 Z M 18 17.019531 "/>
</g>
</svg>
