<?xml version="1.0" encoding="UTF-8"?>
<svg xmlns="http://www.w3.org/2000/svg" xmlns:xlink="http://www.w3.org/1999/xlink" width="24px" height="24px" viewBox="0 0 24 24" version="1.1">
<g id="surface1">
<path style=" stroke:none;fill-rule:nonzero;fill:rgb(10.980392%,15.294118%,29.803922%);fill-opacity:1;" d="M 10.039062 5.316406 L 10.6875 6.480469 C 11.273438 7.527344 11.039062 8.90625 10.113281 9.828125 C 10.113281 9.828125 8.996094 10.945312 11.023438 12.976562 C 13.050781 15.003906 14.171875 13.886719 14.171875 13.886719 C 15.09375 12.960938 16.472656 12.726562 17.519531 13.3125 L 18.683594 13.960938 C 20.269531 14.847656 20.457031 17.070312 19.0625 18.460938 C 18.226562 19.300781 17.199219 19.949219 16.066406 19.992188 C 14.160156 20.066406 10.917969 19.582031 7.667969 16.332031 C 4.417969 13.082031 3.933594 9.839844 4.007812 7.933594 C 4.050781 6.800781 4.699219 5.773438 5.539062 4.9375 C 6.929688 3.542969 9.152344 3.730469 10.039062 5.316406 Z M 10.039062 5.316406 "/>
</g>
</svg>
