<?xml version="1.0" encoding="UTF-8"?>
<svg xmlns="http://www.w3.org/2000/svg" xmlns:xlink="http://www.w3.org/1999/xlink" width="24px" height="24px" viewBox="0 0 24 24" version="1.1">
<g id="surface1">
<path style="fill:none;stroke-width:3;stroke-linecap:butt;stroke-linejoin:miter;stroke:rgb(0%,0%,0%);stroke-opacity:1;stroke-miterlimit:4;" d="M 39.927083 55.71875 C 29.697917 59.166667 18.416667 55.614583 12 46.927083 C 5.59375 38.25 5.510417 26.427083 11.8125 17.65625 C 18.104167 8.885417 29.34375 5.1875 39.614583 8.489583 C 49.885417 11.802083 56.854167 21.354167 56.864583 32.145833 C 56.78125 34.166667 56.53125 36.177083 56.125 38.145833 " transform="matrix(0.375,0,0,0.375,0,0)"/>
<path style="fill:none;stroke-width:3;stroke-linecap:butt;stroke-linejoin:miter;stroke:rgb(0%,0%,0%);stroke-opacity:1;stroke-miterlimit:4;" d="M 37.864583 51.104167 C 36.072917 53.135417 34.114583 55.010417 32 56.697917 " transform="matrix(0.375,0,0,0.375,0,0)"/>
<path style="fill:none;stroke-width:3;stroke-linecap:butt;stroke-linejoin:miter;stroke:rgb(0%,0%,0%);stroke-opacity:1;stroke-miterlimit:4;" d="M 32 7 C 38.708333 12.864583 42.864583 21.114583 43.572917 30 C 43.71875 31.614583 43.75 33.229167 43.65625 34.854167 " transform="matrix(0.375,0,0,0.375,0,0)"/>
<path style="fill:none;stroke-width:3;stroke-linecap:butt;stroke-linejoin:miter;stroke:rgb(0%,0%,0%);stroke-opacity:1;stroke-miterlimit:4;" d="M 32 7 C 24.635417 13.416667 20.375 22.6875 20.3125 32.458333 C 20.3125 48.65625 27.59375 53.458333 31.96875 56.697917 " transform="matrix(0.375,0,0,0.375,0,0)"/>
<path style="fill:none;stroke-width:3;stroke-linecap:butt;stroke-linejoin:miter;stroke:rgb(0%,0%,0%);stroke-opacity:1;stroke-miterlimit:4;" d="M 10.375 19.895833 L 53.75 19.895833 " transform="matrix(0.375,0,0,0.375,0,0)"/>
<path style="fill:none;stroke-width:3;stroke-linecap:butt;stroke-linejoin:miter;stroke:rgb(0%,0%,0%);stroke-opacity:1;stroke-miterlimit:4;" d="M 32 6.989583 L 32 56.697917 " transform="matrix(0.375,0,0,0.375,0,0)"/>
<path style="fill:none;stroke-width:3;stroke-linecap:butt;stroke-linejoin:miter;stroke:rgb(0%,0%,0%);stroke-opacity:1;stroke-miterlimit:4;" d="M 11.052083 45.479167 L 37.041667 45.479167 " transform="matrix(0.375,0,0,0.375,0,0)"/>
<path style="fill:none;stroke-width:3;stroke-linecap:butt;stroke-linejoin:miter;stroke:rgb(0%,0%,0%);stroke-opacity:1;stroke-miterlimit:4;" d="M 7.135417 32.458333 L 56.864583 31.854167 " transform="matrix(0.375,0,0,0.375,0,0)"/>
<path style="fill:none;stroke-width:3;stroke-linecap:butt;stroke-linejoin:miter;stroke:rgb(0%,0%,0%);stroke-opacity:1;stroke-miterlimit:4;" d="M 53.572917 57 L 58 52.5625 L 50 44.5625 L 54.552083 41.645833 C 54.6875 41.572917 54.760417 41.416667 54.729167 41.260417 C 54.708333 41.104167 54.583333 40.979167 54.427083 40.947917 L 39.135417 37.375 C 39.010417 37.34375 38.875 37.385417 38.78125 37.479167 C 38.697917 37.572917 38.65625 37.697917 38.677083 37.833333 L 42 53.40625 C 42.03125 53.5625 42.15625 53.6875 42.3125 53.708333 C 42.46875 53.739583 42.625 53.677083 42.708333 53.541667 L 45.572917 49 Z M 53.572917 57 " transform="matrix(0.375,0,0,0.375,0,0)"/>
</g>
</svg>
